<svg width="1024" height="1024" viewBox="0 0 1024 1024" fill="none" xmlns="http://www.w3.org/2000/svg">
<path d="M784.175 1024H239.995C0 1024 0 1024 0 778.358V245.642C0 0 0 0 239.995 0H784.005C1024 0 1024 0 1024 245.642V778.185C1024 1024 1024 1024 784.175 1024Z" fill="#036AAF"/>
<path d="M643.072 469.845C676.693 468.821 710.485 467.797 744.107 467.285C782.165 466.773 820.565 464.213 858.624 465.749C879.616 466.602 900.437 468.309 921.429 469.845C882.517 435.712 817.152 400.213 707.755 380.074C702.464 385.365 697.173 390.826 692.053 396.458C680.96 408.746 670.72 421.888 661.504 435.882C654.677 446.805 648.533 458.069 643.072 469.845Z" fill="#020202"/>
<path d="M960.341 531.114C959.829 531.114 959.488 531.285 958.976 531.285C922.453 530.944 886.101 526.677 849.579 525.141C811.52 523.605 773.12 526.165 735.061 526.677C657.067 527.701 579.072 530.773 501.077 534.528C354.475 541.525 207.531 549.034 60.7573 543.232C57.0027 553.813 56.32 560.298 56.32 560.298C32.5974 687.445 282.112 703.658 421.888 702.976C482.645 702.634 543.232 702.634 603.989 702.976C743.936 703.658 993.28 687.445 969.557 560.298C969.899 560.298 968.533 548.522 960.341 531.114Z" fill="#020202"/>
<path d="M372.395 406.528C363.179 420.522 355.157 435.2 348.843 450.73C345.6 458.581 343.04 466.602 340.821 474.624C338.603 482.816 337.237 491.178 336.213 499.712C335.701 491.178 335.872 482.474 336.555 473.941C337.408 465.408 338.603 456.704 340.651 448.17C344.405 431.104 350.208 414.378 357.205 398.336C364.373 382.293 372.736 366.592 382.123 351.744C384.171 348.501 386.219 345.429 388.267 342.357C75.6053 378.88 60.5867 530.773 60.5867 530.773C36.864 657.92 286.379 674.133 426.155 673.45C486.912 673.109 547.499 673.109 608.256 673.45C748.203 674.133 997.547 657.92 973.824 530.773C973.824 530.773 960.683 397.824 702.805 350.72C697.515 356.01 692.224 361.472 687.104 367.104C676.011 379.392 665.771 392.533 656.555 406.528C647.339 420.522 639.317 435.2 633.003 450.73C629.76 458.581 627.2 466.602 624.981 474.624C622.763 482.816 621.397 491.178 620.373 499.712C619.861 491.178 620.032 482.474 620.715 473.941C621.568 465.408 622.763 456.704 624.811 448.17C628.565 431.104 634.368 414.378 641.365 398.336C648.533 382.293 656.896 366.592 666.283 351.744C667.648 349.696 669.013 347.648 670.379 345.429C640.171 340.992 606.72 337.92 570.197 336.042L569.344 336.725C567.808 338.09 566.272 339.456 564.736 340.821C561.664 343.552 558.763 346.453 555.861 349.354C550.059 355.157 544.256 361.13 538.795 367.274C527.701 379.562 517.461 392.704 508.245 406.698C499.029 420.693 491.008 435.37 484.693 450.901C481.451 458.752 478.891 466.773 476.672 474.794C474.453 482.986 473.088 491.349 472.064 499.882C471.552 491.349 471.723 482.645 472.405 474.112C473.259 465.578 474.453 456.874 476.501 448.341C480.256 431.274 486.059 414.549 493.056 398.506C500.224 382.464 508.587 366.762 517.973 351.914C521.557 346.112 525.483 340.48 529.408 334.848C525.312 334.848 521.045 334.677 516.949 334.677C486.571 335.018 458.24 336.213 431.616 338.261C430.592 339.114 429.568 340.138 428.544 340.992C425.472 343.722 422.571 346.624 419.669 349.525C413.867 355.328 408.064 361.301 402.603 367.445" fill="#FDFEFE"/>
</svg>
